<svg id="Layer_1" data-name="Layer 1" xmlns="http://www.w3.org/2000/svg" viewBox="0 0 200 200"><title>RG Logo</title><path d="M100,200a99.53,99.53,0,0,1-84.8-47l2.52-2.35a95.79,95.79,0,0,0,56.41,18.22A96.47,96.47,0,0,0,156,21.25l2.52-2.35A100,100,0,0,1,100,200ZM73.53,172.37c-36.73-.21-38.21,8.23-3.25,19.48a96.48,96.48,0,0,0,105.88-151c-6.27-8.09-9-6.69-6.14,3.13A100,100,0,0,1,74.13,172.37Z"/><path d="M74.13,172.37a99.29,99.29,0,0,1-58.47-18.89L15.2,153A100,100,0,0,1,158.47,18.9l.46.49a100,100,0,0,1-84.8,153ZM7.33,126.9a54.9,54.9,0,0,0,33.79,36.17,96.52,96.52,0,0,0,124.63-121,51.58,51.58,0,0,0-29.43-31.5A96.52,96.52,0,0,0,7.33,126.9Z"/></svg>