<svg id="Layer_1" data-name="Layer 1" xmlns="http://www.w3.org/2000/svg" viewBox="0 0 200 200"><defs><style>.cls-1{fill:#fff;stroke:#fff;stroke-miterlimit:10;stroke-width:2px;}</style></defs><title>RG Logo</title><path class="cls-1" d="M156.42,21.73A96.48,96.48,0,0,0,18.17,151.13,96.49,96.49,0,1,0,156.42,21.73ZM10.57,126A93.16,93.16,0,0,1,135.05,13.71a49.76,49.76,0,0,1,28.23,29.95c.08.22.16.44.23.66.35,1.06.69,2.14,1,3.22l0,.11c.32,1.12.62,2.24.9,3.38.09.35.16.71.25,1.07.18.78.36,1.56.52,2.34.09.43.17.87.25,1.3.14.72.27,1.43.39,2.15.08.46.15.92.22,1.39.11.7.21,1.4.3,2.11.06.46.12.93.17,1.39.08.72.15,1.45.22,2.17l.12,1.34c.06.79.1,1.59.14,2.38,0,.38,0,.76.06,1.14,0,1.18.07,2.35.07,3.53A93.22,93.22,0,0,1,75,166.45c-1.31,0-2.61,0-3.91-.08l-1.28-.07c-.87-.05-1.74-.1-2.61-.17L65.73,166c-.78-.08-1.57-.16-2.35-.26-.53-.06-1.06-.14-1.58-.21l-2.26-.35L58,164.88l-2.23-.44-1.56-.35c-.76-.17-1.5-.35-2.25-.54l-1.49-.39c-.79-.22-1.57-.45-2.35-.69l-1.34-.4c-.93-.3-1.86-.62-2.79-.95l-.83-.28A53,53,0,0,1,10.57,126ZM100,193.11a93.65,93.65,0,0,1-28.68-4.47c-33.74-10.86-32.31-19,3.14-18.8H75a96.61,96.61,0,0,0,96.5-96.5c0-1.15,0-2.3-.07-3.45,0-.37,0-.75-.06-1.13,0-.76-.07-1.53-.12-2.3,0-.45-.08-.91-.12-1.36-.06-.69-.11-1.37-.19-2,0-.49-.12-1-.17-1.46-.08-.65-.16-1.3-.25-1.94s-.16-1-.24-1.51-.19-1.24-.3-1.86l-.3-1.54c-.12-.6-.24-1.21-.37-1.81s-.23-1-.35-1.54-.28-1.19-.43-1.78-.27-1-.41-1.55l-.48-1.74c0-.13-.07-.26-.11-.4-2.81-9.47-.13-10.83,5.93-3A93.07,93.07,0,0,1,100,193.11Z"/></svg>