<svg id="Layer_1" data-name="Layer 1" xmlns="http://www.w3.org/2000/svg" viewBox="0 0 500 500"><defs><style>.cls-1{fill:#fff;}</style></defs><title>Type 2</title><path class="cls-1" d="M58.07,76.57l-2.2-1.1H37.17l-1.1,1.1v33l-1.1,1.1h-4.4l-1.1-1.1V34.77l1.1-1.1h31.9q12.42,0,18.31,5.11t5.89,15.79a24.69,24.69,0,0,1-1.49,8.91,17.77,17.77,0,0,1-3.63,6.05,18.17,18.17,0,0,1-5.11,3.63A21.69,21.69,0,0,1,70.94,75a30.49,30.49,0,0,1-5.17.44v1.1l18.7,29.7v3.3l-1.1,1.1h-2.2l-2.2-1.1Zm17.6-10q4.39-3.42,4.4-12t-4.24-12q-4.23-3.42-12.26-3.41H37.17l-1.1,1.1v28.6l1.1,1.1h25.3Q71.26,70,75.67,66.56Z"/><path class="cls-1" d="M147.39,109.4a39.18,39.18,0,0,1-26.84,0,32.59,32.59,0,0,1-11.17-7,32.21,32.21,0,0,1-7.75-12.43,51.06,51.06,0,0,1-2.86-17.76,51.08,51.08,0,0,1,2.86-17.77A32.28,32.28,0,0,1,109.38,42a32.89,32.89,0,0,1,11.17-7,39.34,39.34,0,0,1,26.84,0,32.85,32.85,0,0,1,11.16,7,32.42,32.42,0,0,1,7.76,12.43,51.31,51.31,0,0,1,2.86,17.77,51.29,51.29,0,0,1-2.86,17.76,31.21,31.21,0,0,1-18.92,19.47Zm7.31-62.64q-7.86-8.7-20.73-8.69t-20.74,8.69q-7.86,8.68-7.86,25.41t7.86,25.41q7.86,8.69,20.74,8.69t20.73-8.69q7.86-8.7,7.87-25.41T154.7,46.76Z"/><path class="cls-1" d="M237.37,90.87a21.88,21.88,0,0,1-1.27,7.53A18.58,18.58,0,0,1,223.39,110a44.23,44.23,0,0,1-13.52,1.82q-13.32,0-21-6.38t-7.65-17.82l1.11-1.1h4.39l1.11,1.1q0,18.69,23.09,18.7,9.57,0,14.69-4.24a13.76,13.76,0,0,0,5.11-11.16q0-7.05-5-10.56t-18.1-7Q194.79,69.85,189.13,65t-5.67-13.69a18,18,0,0,1,1.1-6.27,19.68,19.68,0,0,1,3.69-5.94,17.44,17.44,0,0,1,7.87-4.73,39.92,39.92,0,0,1,12.64-1.76q11.88,0,19.14,5.22t7.26,16.78l-1.1,1.1h-4.4l-1.1-1.1q0-16.5-19.8-16.5-18.69,0-18.7,13.2,0,7,5,10.56t18.09,7q13.2,3.51,18.71,8T237.37,90.87Z"/><path class="cls-1" d="M361.66,73.27l-1.1,1.1H252.76l-1.1-1.1V70l1.1-1.1h107.8l1.1,1.1Z"/><path class="cls-1" d="M423.26,38.07l-24.2,40.7v30.8l-1.1,1.1h-4.4l-1.1-1.1V78.77l-24.2-40.7v-3.3l1.1-1.1h2.2l2.2,1.1,20.9,36.3h2.2l20.9-36.3,2.2-1.1h2.2l1.1,1.1Z"/><path class="cls-1" d="M61.37,231.77q-15.63,0-26-10.34T25.07,192.17q0-18.93,10.34-29.26t26-10.34q13.08,0,20.46,6.54a28.55,28.55,0,0,1,9.24,16.56l-1.1,1.1h-4.4l-1.1-1.1q-4-17.61-23.1-17.6-13.75,0-21.73,9.46t-8,24.64q0,15.18,8,24.64t21.73,9.46a28.66,28.66,0,0,0,11.93-2.2,15.06,15.06,0,0,0,7.1-6.33,29.13,29.13,0,0,0,3.19-8.52,54.59,54.59,0,0,0,.88-10.45l-1.1-1.1H58.07l-1.1-1.1v-3.3l1.1-1.1H90l1.1,1.1v36.3l-1.1,1.1h-2.2l-1.1-1.1-1.1-8.8h-1.1Q77.09,231.77,61.37,231.77Z"/><path class="cls-1" d="M157.07,229.57l-1.1,1.1h-45.1l-1.1-1.1v-74.8l1.1-1.1h4.4l1.1,1.1v69.3l1.1,1.1H156l1.1,1.1Z"/><path class="cls-1" d="M212.29,229.4a39.18,39.18,0,0,1-26.84,0,32.59,32.59,0,0,1-11.17-7,32.21,32.21,0,0,1-7.75-12.43,56.6,56.6,0,0,1,0-35.53A32.28,32.28,0,0,1,174.28,162a32.89,32.89,0,0,1,11.17-7,39.34,39.34,0,0,1,26.84,0,32.85,32.85,0,0,1,11.16,7,32.42,32.42,0,0,1,7.76,12.43,56.6,56.6,0,0,1,0,35.53,31.21,31.21,0,0,1-18.92,19.47Zm7.31-62.64q-7.86-8.7-20.73-8.69t-20.74,8.69q-7.86,8.69-7.86,25.41t7.86,25.41q7.86,8.68,20.74,8.69t20.73-8.69q7.86-8.7,7.87-25.41T219.6,166.76Z"/><path class="cls-1" d="M336.37,158.07l-19.81,71.5-1.1,1.1H310l-1.09-1.1-17.61-64.9h-1.1l-17.6,64.9-1.1,1.1H266l-1.09-1.1-19.81-71.5v-3.3l1.1-1.1h3.3l1.1,1.1,17.6,63.8h1.1l17.61-63.8,1.09-1.1h5.5l1.1,1.1,17.6,63.8h1.1l17.61-63.8,1.09-1.1h3.3l1.11,1.1Z"/><path class="cls-1" d="M457.27,471.67h-4.4l-1.1-1.1v-67.1h-1.1l-15.4,15.4h-1.1l-1.1-1.1v-4.4l17.6-17.6,2.2-1.1h4.4l1.1,1.1v74.8Z"/></svg>